<?xml version="1.0" standalone="no"?>
<!DOCTYPE svg PUBLIC "-//W3C//DTD SVG 1.1//EN" "http://www.w3.org/Graphics/SVG/1.1/DTD/svg11.dtd" >
<svg xmlns="http://www.w3.org/2000/svg" xmlns:xlink="http://www.w3.org/1999/xlink" version="1.1">
<metadata>
Created by FontForge 20190801 at Wed Oct 28 22:25:58 2020
 By Unknown
Copyright (c) 2020 CoType Foundry. All Rights Reserved.
</metadata>
<defs>
<font id="AeonikTRIAL-BoldItalic" horiz-adv-x="605" >
  <font-face 
    font-family="Aeonik TRIAL"
    font-weight="700"
    font-style="italic"
    font-stretch="normal"
    units-per-em="1000"
    panose-1="2 11 8 3 3 3 0 0 0 0"
    ascent="800"
    descent="-200"
    x-height="514"
    cap-height="700"
    bbox="-127 -206 1049 728"
    underline-thickness="86"
    underline-position="-200"
    slope="-10"
    unicode-range="U+0020-007A"
  />
<missing-glyph horiz-adv-x="603" 
d="M60 -109v829h500v-829h-500zM217 632q-41 0 -63 -24t-22 -66t22 -66t63 -24q32 0 52 18.5t22 48.5h-46q-7 -29 -30 -29q-35 0 -35 52t35 52q23 0 30 -30h46q-2 31 -22 49.5t-52 18.5zM394 632q-40 0 -63.5 -25.5t-23.5 -64.5q0 -40 23.5 -65t63.5 -25q39 0 63 25t24 65
q0 39 -24 64.5t-63 25.5zM394 490q-39 0 -39 52t39 52t39 -52t-39 -52zM288 400h-146v-40h49v-138h47v138h50v40zM417 222v66l64 112h-52l-35 -65l-33 65h-55l64 -112v-66h47zM203 46h28q30 0 48.5 16.5t18.5 44.5t-18.5 45t-48.5 17h-74v-178h46v55zM338 -9h125v40h-78v31
h60v37h-60v30h75v40h-122v-178zM203 131h24q24 0 24 -24q0 -23 -24 -23h-24v47z" />
    <glyph glyph-name=".notdef" horiz-adv-x="603" 
d="M60 -109v829h500v-829h-500zM217 632q-41 0 -63 -24t-22 -66t22 -66t63 -24q32 0 52 18.5t22 48.5h-46q-7 -29 -30 -29q-35 0 -35 52t35 52q23 0 30 -30h46q-2 31 -22 49.5t-52 18.5zM394 632q-40 0 -63.5 -25.5t-23.5 -64.5q0 -40 23.5 -65t63.5 -25q39 0 63 25t24 65
q0 39 -24 64.5t-63 25.5zM394 490q-39 0 -39 52t39 52t39 -52t-39 -52zM288 400h-146v-40h49v-138h47v138h50v40zM417 222v66l64 112h-52l-35 -65l-33 65h-55l64 -112v-66h47zM203 46h28q30 0 48.5 16.5t18.5 44.5t-18.5 45t-48.5 17h-74v-178h46v55zM338 -9h125v40h-78v31
h60v37h-60v30h75v40h-122v-178zM203 131h24q24 0 24 -24q0 -23 -24 -23h-24v47z" />
    <glyph glyph-name=".null" horiz-adv-x="0" 
 />
    <glyph glyph-name="nonmarkingreturn" horiz-adv-x="333" 
 />
    <glyph glyph-name="space" unicode=" " horiz-adv-x="248" 
 />
    <glyph glyph-name="comma" unicode="," horiz-adv-x="248" 
d="M89 158q48 0 72 -37t16 -96q-10 -81 -66 -125t-145 -45l4 73q94 3 112 66q2 12 2 18q-10 -10 -27 -10q-31 0 -48.5 22t-12.5 60q4 31 30.5 52.5t62.5 21.5z" />
    <glyph glyph-name="hyphen" unicode="-" horiz-adv-x="430" 
d="M385 227h-351l20 114h351z" />
    <glyph glyph-name="period" unicode="." horiz-adv-x="248" 
d="M99 160q35 0 56.5 -21t21.5 -55q0 -38 -27 -64t-65 -26q-35 0 -56 21t-21 54q0 40 26.5 65.5t64.5 25.5z" />
    <glyph glyph-name="zero" unicode="0" horiz-adv-x="646" 
d="M291 -6q-111 0 -179 72t-69 195q-2 117 37.5 217.5t120 164t187.5 63.5q110 0 178.5 -73t69.5 -196q2 -117 -38 -217t-120.5 -163t-186.5 -63zM301 116q59 0 103.5 48t65 115.5t20.5 140.5q0 78 -30 121t-82 43q-59 0 -103.5 -48t-65 -116t-20.5 -141q0 -78 30 -120.5
t82 -42.5z" />
    <glyph glyph-name="one" unicode="1" horiz-adv-x="366" 
d="M228 627l13 73h141l-123 -700h-144l82 446q-15 -4 -38 -4h-121l20 119h100q27 0 46 18.5t24 47.5z" />
    <glyph glyph-name="two" unicode="2" horiz-adv-x="562" 
d="M-25 0l19 111l303 223q35 26 51 39.5t39 36.5t32.5 45t9.5 47q0 42 -25.5 63t-68.5 21q-54 0 -90 -34.5t-47 -98.5h-145q22 126 96.5 190t189.5 64q114 0 174.5 -52.5t60.5 -142.5q0 -83 -48.5 -145t-140.5 -124l-178 -122h304l-22 -121h-514z" />
    <glyph glyph-name="three" unicode="3" horiz-adv-x="585" 
d="M257 -6q-115 0 -183.5 55.5t-68.5 149.5q0 21 4 34h141q-1 -8 -1 -18q0 -52 32 -80t86 -28q61 0 98.5 30.5t37.5 77.5q0 82 -109 82h-76l21 115h64q65 0 101.5 28t36.5 73q0 38 -29.5 59t-74.5 21q-116 0 -139 -104h-139q21 109 91 163t198 54q105 0 171.5 -48.5
t66.5 -125.5q0 -70 -43.5 -114t-117.5 -61q121 -32 121 -139q0 -105 -82.5 -164.5t-206.5 -59.5z" />
    <glyph glyph-name="four" unicode="4" horiz-adv-x="606" 
d="M-6 150l20 123l376 427h189l-76 -430h96l-21 -120h-96l-26 -150h-142l27 150h-347zM415 560l-260 -290h207z" />
    <glyph glyph-name="five" unicode="5" horiz-adv-x="589" 
d="M600 700l-21 -121h-328l-32 -144q57 42 133 42q93 0 152.5 -56t59.5 -148q0 -125 -82 -202t-210 -77q-113 0 -179.5 59.5t-66.5 150.5q0 4 0.5 10.5t0.5 8.5h142v-6q-1 -47 30.5 -76t80.5 -29q63 0 101.5 42t38.5 106q0 47 -29.5 75t-75.5 28q-85 0 -126 -78l-141 6
l92 409h460z" />
    <glyph glyph-name="six" unicode="6" horiz-adv-x="611" 
d="M295 -6q-67 0 -120.5 28t-84.5 76q-45 70 -45 171q0 196 88 316.5t250 120.5q110 0 172 -55t59 -148h-139q-13 87 -102 87q-144 0 -179 -197q0 -3 -0.5 -8t-1.5 -8q59 89 179 89q95 0 152 -53.5t57 -142.5q0 -122 -79.5 -199t-205.5 -77zM300 107q61 0 99 40.5t38 102.5
q0 46 -28.5 75.5t-75.5 29.5q-61 0 -100 -40t-38 -102q1 -44 29.5 -75t75.5 -31z" />
    <glyph glyph-name="seven" unicode="7" horiz-adv-x="540" 
d="M54 578l21 122h516l-14 -93l-406 -607h-162l398 578h-353z" />
    <glyph glyph-name="eight" unicode="8" horiz-adv-x="608" 
d="M452 361q49 -14 81 -53.5t32 -98.5q0 -102 -82 -158.5t-208 -56.5q-117 0 -186 51.5t-69 130.5t49.5 129.5t127.5 62.5q-42 15 -70.5 51.5t-28.5 87.5q0 93 76.5 146t195.5 53q107 0 171 -48.5t64 -122.5q0 -67 -44.5 -113.5t-108.5 -60.5zM360 604q-51 0 -86 -29
t-35 -73q0 -37 26.5 -58t76.5 -21q51 0 86.5 29t35.5 73q0 37 -29 58t-75 21zM279 95q64 0 103.5 34t39.5 86q0 40 -32.5 65.5t-82.5 25.5q-64 0 -103.5 -34t-39.5 -85q0 -41 32.5 -66.5t82.5 -25.5z" />
    <glyph glyph-name="nine" unicode="9" horiz-adv-x="611" 
d="M349 706q67 0 120.5 -27.5t84.5 -76.5q45 -70 45 -171q0 -197 -86.5 -317t-247.5 -120q-111 0 -174.5 55t-60.5 148h139q14 -87 109 -87q75 0 115 51.5t57 145.5q0 3 0.5 8t1.5 8q-59 -89 -179 -89q-95 0 -152 53.5t-57 142.5q0 122 79.5 199t205.5 77zM344 593
q-61 0 -99 -40.5t-38 -102.5q0 -46 28.5 -75.5t75.5 -29.5q61 0 100 40t38 102q-1 44 -29.5 75t-75.5 31z" />
    <glyph glyph-name="A" unicode="A" horiz-adv-x="689" 
d="M640 0h-154l-25 153h-261l-79 -153h-162l375 700h179zM399 538l-137 -264h181z" />
    <glyph glyph-name="B" unicode="B" horiz-adv-x="634" 
d="M14 0l124 700h255q108 0 167.5 -46.5t59.5 -125.5q0 -74 -39.5 -117.5t-110.5 -55.5q122 -24 122 -142q0 -106 -82.5 -159.5t-215.5 -53.5h-280zM379 582h-112l-30 -170h120q53 0 84 25.5t31 69.5q0 36 -24 55.5t-69 19.5zM341 296h-125l-31 -177h131q60 0 93 25.5
t33 72.5q0 37 -26 58t-75 21z" />
    <glyph glyph-name="C" unicode="C" horiz-adv-x="696" 
d="M344 -6q-137 0 -218 84.5t-81 218.5q0 175 106 292t280 117q125 0 197.5 -69.5t74.5 -184.5h-148q-5 58 -42.5 92.5t-99.5 34.5q-97 0 -156.5 -83.5t-59.5 -197.5q0 -78 41.5 -127.5t109.5 -49.5q120 0 173 129h150q-32 -120 -118.5 -188t-208.5 -68z" />
    <glyph glyph-name="D" unicode="D" horiz-adv-x="699" 
d="M272 0h-258l124 700h213q156 0 245 -82t89 -220q0 -183 -110 -290.5t-303 -107.5zM265 575l-79 -450h103q115 0 180 74.5t65 191.5q0 87 -51 135.5t-141 48.5h-77z" />
    <glyph glyph-name="E" unicode="E" horiz-adv-x="566" 
d="M14 0l124 700h464l-23 -129h-314l-28 -157h255l-22 -123h-254l-29 -162h326l-23 -129h-476z" />
    <glyph glyph-name="F" unicode="F" horiz-adv-x="538" 
d="M14 0l124 700h457l-23 -129h-307l-29 -164h251l-22 -123h-251l-50 -284h-150z" />
    <glyph glyph-name="G" unicode="G" horiz-adv-x="746" 
d="M432 706q125 0 203 -67.5t79 -187.5h-144q-3 61 -42.5 94.5t-101.5 33.5q-106 0 -167.5 -82t-61.5 -199q0 -79 43.5 -128t116.5 -49q66 0 118.5 36t70.5 104l1 9h-172l21 119h313l-68 -388h-104l-1 83q-80 -89 -204 -89q-131 0 -209.5 81.5t-78.5 215.5
q0 179 106.5 296.5t281.5 117.5z" />
    <glyph glyph-name="H" unicode="H" horiz-adv-x="691" 
d="M14 0l124 700h150l-50 -281h272l50 281h150l-124 -700h-150l52 289h-272l-52 -289h-150z" />
    <glyph glyph-name="I" unicode="I" horiz-adv-x="269" 
d="M14 0l124 700h150l-124 -700h-150z" />
    <glyph glyph-name="J" unicode="J" horiz-adv-x="395" 
d="M178 219l85 481h150l-91 -519q-16 -88 -71 -134.5t-144 -46.5h-130l23 129h76q86 0 102 90z" />
    <glyph glyph-name="K" unicode="K" horiz-adv-x="685" 
d="M556 700h192l-306 -290l197 -410h-164l-147 304l-129 -120l-35 -184h-150l124 700h150l-56 -307z" />
    <glyph glyph-name="L" unicode="L" horiz-adv-x="505" 
d="M440 0h-426l124 700h150l-101 -571h276z" />
    <glyph glyph-name="M" unicode="M" horiz-adv-x="892" 
d="M14 0l124 700h194l103 -514l280 514h195l-123 -700h-144l84 469l-264 -469h-122l-100 469l-83 -469h-144z" />
    <glyph glyph-name="N" unicode="N" horiz-adv-x="698" 
d="M162 0h-148l124 700h132l219 -444l81 444h147l-123 -700h-135l-218 441z" />
    <glyph glyph-name="O" unicode="O" horiz-adv-x="751" 
d="M351 -6q-137 0 -221.5 85t-84.5 217q0 175 108.5 292.5t278.5 117.5q137 0 222 -85t85 -217q0 -175 -108.5 -292.5t-279.5 -117.5zM359 120q103 0 166 82.5t63 197.5q0 78 -44 129t-119 51q-103 0 -166 -82t-63 -197q0 -79 44 -130t119 -51z" />
    <glyph glyph-name="P" unicode="P" horiz-adv-x="618" 
d="M14 0l124 700h257q110 0 174 -58t64 -148q0 -122 -80.5 -190.5t-210.5 -68.5h-136l-42 -235h-150zM380 575h-115l-37 -215h116q63 0 100 32t37 90q0 45 -26.5 69t-74.5 24z" />
    <glyph glyph-name="Q" unicode="Q" horiz-adv-x="753" 
d="M646 130q4 -1 12 -1h73l-24 -129h-68q-62 0 -94 43q-89 -49 -194 -49q-137 0 -221.5 85t-84.5 217q0 175 108.5 292.5t278.5 117.5q137 0 222 -85t85 -217q0 -161 -93 -274zM196 301q0 -79 44 -130t119 -51q61 0 109 31l-14 19q-18 27 -44 27h-69l21 127h72q27 0 47 -9.5
t26 -17t21 -28.5l21 -29q39 72 39 160q0 78 -44 129t-119 51q-103 0 -166 -82t-63 -197z" />
    <glyph glyph-name="R" unicode="R" horiz-adv-x="636" 
d="M635 494q0 -87 -41.5 -147.5t-115.5 -88.5l92 -258h-159l-80 235h-125l-42 -235h-150l124 700h259q110 0 174 -58t64 -148zM381 575h-116l-37 -215h118q62 0 99.5 33t37.5 91q0 44 -27 67.5t-75 23.5z" />
    <glyph glyph-name="S" unicode="S" horiz-adv-x="619" 
d="M293 -6q-123 0 -195.5 64t-72.5 172l146 -2q3 -57 39 -86t91 -29q58 0 92 22t34 65q0 34 -32.5 54t-112.5 41q-96 26 -147 72t-51 126q0 106 75.5 159.5t201.5 53.5q112 0 182 -58t71 -160h-146q-1 44 -31.5 71t-82.5 27q-53 0 -84.5 -21.5t-31.5 -61.5q0 -32 30 -52
t105 -40q103 -26 156 -71t53 -119q0 -110 -80 -168.5t-209 -58.5z" />
    <glyph glyph-name="T" unicode="T" horiz-adv-x="593" 
d="M76 571l22 129h552l-22 -129h-201l-101 -571h-150l101 571h-201z" />
    <glyph glyph-name="U" unicode="U" horiz-adv-x="682" 
d="M64 307l69 393h150l-72 -411q-5 -28 -5 -47q0 -57 30.5 -88t87.5 -31q69 0 107 44.5t53 131.5l71 401h150l-71 -403q-27 -152 -103 -227.5t-218 -75.5q-125 0 -190.5 60.5t-65.5 172.5q0 41 7 80z" />
    <glyph glyph-name="V" unicode="V" horiz-adv-x="656" 
d="M309 182l264 518h160l-361 -700h-179l-114 700h154z" />
    <glyph glyph-name="W" unicode="W" horiz-adv-x="977" 
d="M153 0l-69 700l153 1l37 -512l225 511h135l38 -511l223 511h154l-317 -700h-173l-35 465l-198 -465h-173z" />
    <glyph glyph-name="X" unicode="X" horiz-adv-x="659" 
d="M259 364l-155 334l162 2l101 -227l174 227h182l-283 -349l165 -351h-163l-109 243l-187 -243h-182z" />
    <glyph glyph-name="Y" unicode="Y" horiz-adv-x="660" 
d="M352 407l216 293h170l-333 -440l-48 -260h-149l48 260l-177 440h163z" />
    <glyph glyph-name="Z" unicode="Z" horiz-adv-x="618" 
d="M91 572l22 128h549l-16 -99l-434 -473h359l-23 -128h-567l16 99l435 473h-341z" />
    <glyph glyph-name="a" unicode="a" horiz-adv-x="556" 
d="M506 119h20l-21 -119h-68q-43 0 -64.5 18.5t-21.5 47.5v1q-62 -73 -165 -73q-77 0 -127.5 37t-50.5 106q0 90 63 134.5t178 44.5h124l3 19q3 12 3 25q0 27 -22.5 42t-59.5 15q-48 0 -70.5 -16t-32.5 -47h-141q43 166 254 166q95 0 152 -40t57 -120q0 -21 -5 -51l-26 -147
q-3 -14 -3 -21q0 -22 24 -22zM218 96q57 0 92 33t45 85l1 8h-104q-101 0 -101 -71q0 -26 19 -40.5t48 -14.5z" />
    <glyph glyph-name="b" unicode="b" 
d="M369 520q92 0 151 -63.5t59 -160.5q0 -127 -80.5 -214.5t-193.5 -87.5q-106 0 -152 72l-25 -66h-124l123 700h141l-41 -237q57 57 142 57zM287 109q66 0 107.5 52.5t41.5 123.5q0 58 -28 89t-76 31q-66 0 -108 -52.5t-42 -123.5q0 -58 28.5 -89t76.5 -31z" />
    <glyph glyph-name="c" unicode="c" horiz-adv-x="567" 
d="M387 195h146q-53 -201 -266 -201q-107 0 -173 64.5t-66 163.5q0 136 78.5 217t211.5 81q103 0 167 -55.5t63 -142.5h-142q-4 38 -29 60.5t-65 22.5q-64 0 -103 -53t-39 -123q0 -54 28.5 -87t77.5 -33q80 0 111 86z" />
    <glyph glyph-name="d" unicode="d" 
d="M451 451l43 249h141l-124 -700h-116l-3 67q-58 -73 -156 -73q-92 0 -151 63.5t-59 160.5q0 127 80 214.5t194 87.5q105 0 151 -69zM273 109q66 0 108 52.5t42 123.5q0 58 -28.5 89t-76.5 31q-66 0 -107.5 -52.5t-41.5 -123.5q0 -58 28 -89t76 -31z" />
    <glyph glyph-name="e" unicode="e" horiz-adv-x="575" 
d="M318 520q106 0 168.5 -59.5t62.5 -155.5q0 -48 -9 -81h-372q-1 -4 -1 -11q0 -46 27.5 -79t81.5 -33q45 0 71 18t42 55h140q-20 -82 -89 -131t-167 -49q-115 0 -180 64.5t-65 166.5q0 130 79 212.5t211 82.5zM185 317h221v11q0 43 -26 65t-70 22q-46 0 -79.5 -27.5
t-45.5 -70.5z" />
    <glyph glyph-name="f" unicode="f" horiz-adv-x="359" 
d="M25 395l21 119h85l8 44q14 71 52 106.5t117 35.5h123l-21 -120h-80q-27 0 -39 -10t-15 -32l-4 -24h129l-21 -119h-129l-70 -395h-141l70 395h-85z" />
    <glyph glyph-name="g" unicode="g" horiz-adv-x="606" 
d="M455 441l26 73h121l-89 -504q-18 -104 -82.5 -160t-200.5 -56q-108 0 -173.5 47t-65.5 136h139q6 -76 109 -76q123 0 142 124l6 35q-59 -66 -149 -66q-92 0 -152 63.5t-60 160.5q0 127 80 214.5t194 87.5q112 0 155 -79zM273 109q66 0 108 52.5t42 123.5q0 58 -28.5 89
t-76.5 31q-66 0 -107.5 -52.5t-41.5 -123.5q0 -58 28 -89t76 -31z" />
    <glyph glyph-name="h" unicode="h" horiz-adv-x="587" 
d="M375 520q78 0 129.5 -42.5t51.5 -134.5q0 -34 -7 -69l-48 -274h-141l48 273q5 30 5 52q0 38 -21.5 58.5t-62.5 20.5q-56 0 -91 -38t-48 -108l-45 -258h-141l123 700h141l-41 -239q64 59 148 59z" />
    <glyph glyph-name="i" unicode="i" horiz-adv-x="239" 
d="M183 569q-34 0 -55 20.5t-21 52.5q0 36 25.5 61t61.5 25q34 0 55 -20.5t21 -52.5q0 -36 -25.5 -61t-61.5 -25zM4 0l90 514h142l-91 -514h-141z" />
    <glyph glyph-name="j" unicode="j" horiz-adv-x="244" 
d="M188 569q-34 0 -55 20.5t-21 52.5q0 36 25.5 61t61.5 25q34 0 55 -20.5t21 -52.5q0 -36 -25.5 -61t-61.5 -25zM-127 -200l21 119h46q56 0 65 62l95 533h141l-100 -563q-12 -73 -55 -112t-115 -39h-98z" />
    <glyph glyph-name="k" unicode="k" horiz-adv-x="559" 
d="M4 0l123 700h141l-72 -401l235 215h172l-229 -210l138 -304h-151l-94 211l-100 -90l-22 -121h-141z" />
    <glyph glyph-name="l" unicode="l" horiz-adv-x="238" 
d="M4 0l123 700h141l-125 -700h-139z" />
    <glyph glyph-name="m" unicode="m" horiz-adv-x="892" 
d="M687 520q75 0 125 -39.5t50 -125.5q0 -36 -7 -78l-49 -277h-141l49 278q6 30 6 55q0 33 -19 52t-54 19q-48 0 -81 -36.5t-44 -103.5l-47 -264h-141l49 278q6 30 6 55q0 33 -19 52t-54 19q-48 0 -81 -37.5t-44 -103.5l-46 -263h-141l90 514h123l2 -58q59 64 145 64
q109 0 144 -86q63 86 179 86z" />
    <glyph glyph-name="n" unicode="n" horiz-adv-x="587" 
d="M375 520q76 0 128.5 -42.5t52.5 -134.5q0 -34 -7 -69l-48 -274h-141l48 273q5 30 5 52q0 38 -21.5 58.5t-62.5 20.5q-112 0 -139 -146l-45 -258h-141l90 514h123l2 -58q64 64 156 64z" />
    <glyph glyph-name="o" unicode="o" horiz-adv-x="594" 
d="M266 -6q-106 0 -172 65t-66 165q0 135 83 215.5t217 80.5q106 0 172 -65t66 -165q0 -135 -83 -215.5t-217 -80.5zM277 109q68 0 108 51.5t40 125.5q0 52 -30.5 85.5t-78.5 33.5q-68 0 -107.5 -52t-39.5 -125q0 -52 30.5 -85.5t77.5 -33.5z" />
    <glyph glyph-name="p" unicode="p" 
d="M369 520q92 0 151 -64t59 -161q0 -127 -80.5 -214t-193.5 -87q-105 0 -151 70l-45 -264h-141l126 714h116l2 -68q61 74 157 74zM287 109q66 0 107.5 52.5t41.5 123.5q0 58 -28 89t-76 31q-66 0 -108 -52.5t-42 -123.5q0 -58 28.5 -89t76.5 -31z" />
    <glyph glyph-name="q" unicode="q" 
d="M454 446l25 68h122l-125 -714h-136l44 257q-58 -63 -148 -63q-92 0 -151 63.5t-59 160.5q0 127 80 214.5t194 87.5q108 0 154 -74zM273 109q66 0 108 52.5t42 123.5q0 58 -28.5 89t-76.5 31q-66 0 -107.5 -52.5t-41.5 -123.5q0 -58 28 -89t76 -31z" />
    <glyph glyph-name="r" unicode="r" horiz-adv-x="378" 
d="M379 514h29l-23 -128h-52q-60 0 -97 -38.5t-48 -100.5l-43 -247h-141l90 514h128v-70q57 70 157 70z" />
    <glyph glyph-name="s" unicode="s" horiz-adv-x="524" 
d="M285 521q97 0 159 -44t62 -124h-133q0 33 -23.5 50.5t-65.5 17.5q-45 0 -70.5 -14.5t-25.5 -39.5q0 -36 87 -48q43 -6 74 -13.5t64 -23.5t50.5 -44t17.5 -67q0 -88 -69.5 -132.5t-177.5 -44.5q-102 0 -163 46t-61 133h131q1 -39 27.5 -58.5t69.5 -19.5q104 0 104 59
q0 22 -23 33.5t-73 19.5q-34 6 -57.5 11.5t-52 16.5t-45.5 25t-28.5 37t-11.5 53q0 81 64 126t170 45z" />
    <glyph glyph-name="t" unicode="t" horiz-adv-x="364" 
d="M68 157l42 238h-85l21 119h85l25 144h141l-25 -144h117l-21 -119h-117l-40 -226q-2 -12 -2 -20q0 -30 39 -30h75l-21 -119h-104q-135 0 -135 113q0 14 5 44z" />
    <glyph glyph-name="u" unicode="u" horiz-adv-x="583" 
d="M394 263l44 251h141l-90 -514h-124l-2 57q-63 -63 -157 -63q-75 0 -124.5 41.5t-49.5 132.5q0 37 7 72l48 274h141l-48 -275q-6 -36 -6 -53q0 -76 81 -76q55 0 90.5 40.5t48.5 112.5z" />
    <glyph glyph-name="v" unicode="v" horiz-adv-x="543" 
d="M246 141l190 373h153l-275 -514h-175l-95 514h145z" />
    <glyph glyph-name="w" unicode="w" horiz-adv-x="820" 
d="M123 0l-78 514h147l39 -362l162 362h126l29 -363l170 363h147l-260 -514h-150l-34 310l-148 -310h-150z" />
    <glyph glyph-name="x" unicode="x" horiz-adv-x="545" 
d="M429 514h159l-230 -256l144 -258h-153l-90 162l-147 -162h-159l245 271l-135 243h153l82 -147z" />
    <glyph glyph-name="y" unicode="y" horiz-adv-x="546" 
d="M149 -3l-105 517h147l58 -368l189 368h153l-331 -592q-37 -67 -71.5 -94.5t-92.5 -27.5h-134l21 119h74q27 0 43 9.5t30 34.5z" />
    <glyph glyph-name="z" unicode="z" horiz-adv-x="500" 
d="M59 395l21 119h433l-15 -96l-308 -299h265l-21 -119h-456l15 96l308 299h-242z" />
    </font>
</defs>
</svg>
